# xmcd
#
# Track frame offsets: 
#        182
#        32672
#        57035
#        84690
#        115007
#        144530
#        173217
#        198690
#        229640
#        248240
#
# Disc length: 3757 seconds
#
# Revision: 6
# Processed by: cddbd v1.5.1PL0 Copyright (c) Steve Scherf et al.
# Submitted via: ExactAudioCopy v0.95a5
#
DISCID=830eab0a
DTITLE=Mike Stern - Play
DYEAR=1999
DGENRE=Fusion
TTITLE0=Play
TTITLE1=Small World
TTITLE2=Outta Town
TTITLE3=Blue Tone
TTITLE4=Tipatina's
TTITLE5=All Heart
TTITLE6=Frizz
TTITLE7=Link
TTITLE8=Goin' Under
TTITLE9=Big Kids
EXTD=YEAR: 1999
EXTT0=
EXTT1=
EXTT2=
EXTT3=
EXTT4=
EXTT5=
EXTT6=
EXTT7=
EXTT8=
EXTT9=
PLAYORDER=
